<svg width="201" height="172" viewBox="0 0 201 172" fill="none" xmlns="http://www.w3.org/2000/svg"><g opacity=".19" clip-path="url(#clip0_236_154792)" fill="#fff"><path d="M86.582 7.505C75.638 8.938 65.666 15.346 59.97 24.682c-3.032 4.998-4.03 7.948-4.834 14.264l-.724 5.438-6.68-.606c-6.032-.547-6.878-.546-8.433.044-2.273.871-4.555 3.128-5.419 5.435-.454 1.19-1.404 6.993-2.61 16.044-1.755 13.003-1.87 14.263-1.411 15.151.954 1.78 3.738 2.07 4.955.526.479-.61 1.1-4.057 2.54-14.856 1.144-8.364 2.155-14.43 2.474-14.978 1.006-1.756 2.728-2.062 8.72-1.519l5.421.492-.9 11.195-.902 11.233.975 1.974a10.362 10.362 0 002.742 3.29c1.625 1.186 2.072 1.342 5.088 1.615 3.016.274 3.484.2 5.295-.674a10.362 10.362 0 003.29-2.742l1.314-1.767 1.133-11.212 1.128-11.175 17.14 1.554 17.139 1.554-.899 11.195-.903 11.234.975 1.974c.622 1.21 1.663 2.46 2.743 3.289 1.624 1.186 2.072 1.342 5.087 1.616 3.016.273 3.484.2 5.296-.675a10.36 10.36 0 003.289-2.742l1.314-1.766 1.132-11.213 1.129-11.174 8.894.806 8.895.807-.51 1.377c-.364 1.045-1.383 20.35-3.682 71.175-1.785 38.363-3.128 70.147-3.058 70.654l.153.86-57.107-5.178c-40.234-3.648-57.363-5.316-57.908-5.673-1.777-1.201-1.947.246 4.68-48.223 3.374-24.903 6.322-46.804 6.498-48.751.302-3.321.284-3.554-.604-4.365-1.243-1.152-2.468-1.225-3.828-.232l-1.148.781-6.676 49.004c-7.413 54.595-7.108 51.236-4.724 54.646.688.909 1.965 2.103 2.878 2.647l1.645.958 76.918 6.974 76.919 6.974 1.79-.646c2.387-.861 4.59-3.086 5.544-5.54.742-1.818.78-2.662.796-10.473.026-7.502-.072-8.55-.693-9.338-.937-1.124-3.071-1.356-4.269-.464-1.033.791-1.196 2.162-1.173 10.824-.006 3.463-.037 6.347-.12 6.416-.084.07-2.888-2.109-6.296-4.843-4.374-3.552-6.185-5.217-6.245-5.839-.069-.506-.003-14.394.069-30.898.111-16.501.135-30.777.104-31.704-.032-.926-.355-2.033-.702-2.45-.867-1.04-2.97-1.193-4.199-.38-.819.541-1.009.947-1.092 2.71-.135 2.336-.382 59.389-.27 61.554l.059 1.468-7.328 3.993c-4.007 2.177-7.397 3.909-7.467 3.826-.312-.375 6.238-137.987 6.613-138.723.235-.478.836-1.155 1.332-1.534.867-.652 1.558-.628 11.493.157 11.313.872 12.972 1.253 13.826 2.87.396.729.489 13.707.44 56.693-.065 60.995-.222 56.786 2.325 57.556.903.235 1.413.128 2.356-.518 1.072-.788 1.215-1.083 1.308-2.96.245-5.251.182-110.248-.061-111.387-.497-2.161-2.136-4.465-4.135-5.763l-1.926-1.252-10.716-1.087-10.716-1.087.245-5.25c.328-6.167-.155-9.328-2.207-14.71-3.612-9.41-11.626-17.372-21.184-21.049-2.603-1.005-3.776-1.227-9.849-1.74-6.451-.584-7.069-.563-10.212.152-1.846.41-3.606.713-3.911.685-.306-.028-1.982-.642-3.724-1.377-2.783-1.137-3.877-1.39-9.249-1.993-4.494-.523-6.798-.578-8.783-.335zm14.431 7.66c1.794.585 4.411 1.862 6.268 3.03 5.932 3.771 9.67 8.382 12.153 14.958 2.451 6.495 2.511 7.54 1.116 25.04-.681 8.367-1.408 15.96-1.606 16.866-.284 1.013-.832 1.964-1.498 2.52-2.207 1.84-5.456.313-5.803-2.643-.052-.698.518-8.266 1.297-16.855 1.177-12.98 1.339-16.043 1.019-18.035-1.341-8.127-7.207-15.163-14.96-17.944-1.267-.462-3.839-.964-5.785-1.14-4.161-.378-7.24.036-11.073 1.574-3.835 1.538-8.203 5.145-10.412 8.716-2.925 4.661-3.004 5.116-4.59 22.599-.782 8.627-1.585 16.213-1.762 16.89-.874 2.846-4.343 3.763-6.183 1.556-.556-.666-.924-1.7-1.021-2.748-.032-.927.619-8.527 1.453-16.88 1.776-17.465 2.023-18.482 5.602-24.431 3.802-6.275 8.34-10.059 15.197-12.67 7.096-2.705 13.224-2.803 20.588-.404zm28.248 2.56c1.794.586 4.411 1.863 6.268 3.032 5.931 3.77 9.67 8.381 12.153 14.957 1.708 4.504 2.188 7.703 2.061 13.35l-.09 3.955-3.855-.35-3.855-.349.332-3.664c.609-6.719-1.023-12.063-5.154-17.017-3.61-4.33-9.17-7.528-13.865-7.954-1.527-.138-1.819-.319-2.867-1.915-.684-.947-2.114-2.578-3.173-3.636-1.1-1.023-1.94-1.946-1.857-2.015.33-.24 6.663-.05 8.676.247 1.138.18 3.508.78 5.226 1.36zM100.25 29.527c.944.625 1.704 1.156 1.697 1.232-.01.114-.722 1.166-1.599 2.357-2.11 2.887-2.63 5.226-1.526 6.635 1.035 1.325 2.902 1.533 4.078.447.5-.417 1.332-1.534 1.884-2.524.548-.95 1.155-1.704 1.308-1.69.152.014.666 1.138 1.159 2.491.729 2.145.834 3.117.633 6.6l-.221 4.137-9.581-.869-9.581-.868.114-1.26c.29-2.783 1.6-8.745 2.36-10.755.76-2.01 3.497-6.726 4.35-7.649.507-.493 2.447.183 4.925 1.716zm-13.593.5c-1.974 3.94-3.062 7.881-3.502 12.73l-.38 4.199-4.581-.416-4.58-.415.13-1.45c.818-8.163 4.776-14.039 11.202-16.573 1.554-.59 2.904-1.046 2.935-.966.07.083-.51 1.378-1.224 2.891zm42.996 2.898c2.17 1.544 4.634 4.923 5.686 7.75.862 2.388 1.269 6.39 1.009 9.675l-.131 1.451-4.581-.415-4.581-.416.381-4.199c.443-4.886.084-8.998-1.159-13.113-.469-1.62-.847-2.964-.837-3.078.024-.267 2.589 1.158 4.213 2.345zm35.968 169.138l4.553 3.685-10.115-.917-10.116-.918 5.062-2.774c2.797-1.555 5.295-2.791 5.562-2.767.271-.014 2.544 1.655 5.054 3.691z"/><path d="M79.582 103.819c-15.106 1.902-27.252 12.346-31.15 26.887-4.815 17.883 4.57 36.63 21.842 43.508 4.088 1.602 11.72 2.756 16.37 2.408 15.219-1.045 28.414-12.011 32.425-26.965 5.215-19.309-6.346-39.523-25.54-44.728-3.079-.856-10.953-1.455-13.947-1.11zm16.315 8.522c9.391 4.238 15.914 12.527 17.835 22.746.838 4.348.201 11.372-1.405 15.499-7.342 19.001-30.105 25.981-46.393 14.19-4.838-3.518-8.611-8.594-10.768-14.524-1.733-4.66-2.063-7.384-1.572-12.804.627-6.91 2.777-11.949 7.294-17.197 8.604-9.996 23.102-13.262 35.009-7.91z"/><path d="M68.965 124.986c-2.45.702-5.313 2.982-6.55 5.179-1.423 2.527-1.86 6.066-1.081 8.946.614 2.134 1.326 3.2 7.05 10.107 7.834 9.524 8.699 10.18 13.585 10.623 2.863.259 3.716.183 5.236-.449 1.08-.441 4.962-3.36 9.583-7.213 8.448-7.009 9.441-8.189 10.151-12.204.898-4.806-1.71-10.008-6.024-12.092-4.015-1.981-8.762-1.41-12.957 1.558-1.232.85-1.863 1.024-3.276.896-1.488-.135-2.113-.461-3.64-1.87-2.878-2.647-4.092-3.257-7.247-3.697-2.207-.277-3.325-.263-4.83.216zm7.164 7.577c4.578 4.687 10.943 5.38 16.13 1.655 2.838-2.013 5.92-1.618 7.728.932 1.052 1.558 1.253 2.73.744 4.532-.298 1.166-1.561 2.36-6.9 6.917-7.925 6.748-9.15 7.522-11.326 7.325-2.176-.197-3.241-1.179-9.823-9.242-4.432-5.444-5.46-6.846-5.543-8.046-.185-1.787.186-2.908 1.38-4.186 2.123-2.193 5.392-2.166 7.61.113z"/></g><defs><clipPath id="clip0_236_154792"><path fill="#fff" transform="rotate(5.181 1.539 200.146)" d="M0 0h196.247v196.247H0z"/></clipPath></defs></svg>