<svg width="267" height="64" viewBox="0 0 267 64" fill="none" xmlns="http://www.w3.org/2000/svg"><path fill-rule="evenodd" clip-rule="evenodd" d="M45.816 43.51V25.546l-1.747-1.845-1.788 1.817.036 26.351H63.51v-8.383h10.81v19.02H0V40.12h7.38v-9.392l.364-.468c4.695-6.067 13.144-8.88 13.167-8.888l.577-.196.57.214c8.949 3.372 13.007 9.824 13.016 9.842l.273.427v11.878H10.81v12.11H7.38v-12.11H3.435v15.536h67.45V46.904h-3.944v8.383H38.9l-.042-31.176 2.858-2.904-2.762-2.913V9.988l3.694-2.454.874-4.399c-.596-.24-1.02-.718-1.02-1.508S43.233 0 44.134 0c.9 0 1.628.836 1.628 1.627 0 .79-.423 1.268-1.019 1.508l.878 4.44 3.777 2.272v8.434l-2.93 2.98 2.789 2.94v19.304h-3.44v.004zm-10.469 3.425h-3.43v8.72h3.43v-8.72zm7.034-29.972l1.724 1.817 1.852-1.88v-5.117l-1.847-1.11-1.729 1.15v5.14zm-31.57 23.156h21.106v-7.43c-.929-1.276-4.255-5.352-10.492-7.87-1.756.669-7.193 2.981-10.615 7.08v8.22z" fill="#E5D675"/><path d="M108.632 51.6c.728 0 1.36.12 1.896.36.544.24.96.584 1.248 1.032.288.448.432.98.432 1.596 0 .608-.144 1.14-.432 1.596-.288.448-.704.792-1.248 1.032-.536.24-1.168.36-1.896.36h-1.896V60h-1.56v-8.4h3.456zm-.072 4.656c.68 0 1.196-.144 1.548-.432.352-.288.528-.7.528-1.236s-.176-.948-.528-1.236c-.352-.288-.868-.432-1.548-.432h-1.824v3.336h1.824zm10.63 1.8h-4.2L114.162 60h-1.608l3.78-8.4h1.536l3.792 8.4h-1.632l-.84-1.944zm-.516-1.224l-1.584-3.672-1.572 3.672h3.156zm8.383 3.288c-.848 0-1.616-.184-2.304-.552a4.212 4.212 0 01-1.608-1.548c-.384-.656-.576-1.396-.576-2.22 0-.824.196-1.564.588-2.22a4.124 4.124 0 011.608-1.536c.688-.376 1.456-.564 2.304-.564.688 0 1.316.12 1.884.36.568.24 1.048.588 1.44 1.044l-1.008.948c-.608-.656-1.356-.984-2.244-.984-.576 0-1.092.128-1.548.384a2.682 2.682 0 00-1.068 1.044 3.017 3.017 0 00-.384 1.524c0 .568.128 1.076.384 1.524.256.448.612.8 1.068 1.056.456.248.972.372 1.548.372.888 0 1.636-.332 2.244-.996l1.008.96a3.823 3.823 0 01-1.452 1.044c-.568.24-1.196.36-1.884.36zm8.833 0c-.848 0-1.616-.184-2.304-.552a4.212 4.212 0 01-1.608-1.548c-.384-.656-.576-1.396-.576-2.22 0-.824.196-1.564.588-2.22a4.124 4.124 0 011.608-1.536c.688-.376 1.456-.564 2.304-.564.688 0 1.316.12 1.884.36.568.24 1.048.588 1.44 1.044l-1.008.948c-.608-.656-1.356-.984-2.244-.984-.576 0-1.092.128-1.548.384a2.682 2.682 0 00-1.068 1.044 3.017 3.017 0 00-.384 1.524c0 .568.128 1.076.384 1.524.256.448.612.8 1.068 1.056.456.248.972.372 1.548.372.888 0 1.636-.332 2.244-.996l1.008.96a3.823 3.823 0 01-1.452 1.044c-.568.24-1.196.36-1.884.36zm8.6-8.52c.728 0 1.36.12 1.896.36.544.24.96.584 1.248 1.032.288.448.432.98.432 1.596 0 .608-.144 1.14-.432 1.596-.288.448-.704.792-1.248 1.032-.536.24-1.168.36-1.896.36h-1.896V60h-1.56v-8.4h3.456zm-.072 4.656c.68 0 1.196-.144 1.548-.432.352-.288.528-.7.528-1.236s-.176-.948-.528-1.236c-.352-.288-.868-.432-1.548-.432h-1.824v3.336h1.824zm9.489 3.864c-.856 0-1.628-.184-2.316-.552a4.189 4.189 0 01-1.62-1.548 4.285 4.285 0 01-.588-2.22c0-.816.196-1.552.588-2.208a4.077 4.077 0 011.62-1.548c.688-.376 1.46-.564 2.316-.564.856 0 1.628.188 2.316.564.688.368 1.228.88 1.62 1.536.392.656.588 1.396.588 2.22 0 .824-.196 1.564-.588 2.22a4.189 4.189 0 01-1.62 1.548c-.688.368-1.46.552-2.316.552zm0-1.368c.56 0 1.064-.124 1.512-.372.448-.256.8-.608 1.056-1.056a3.06 3.06 0 00.384-1.524c0-.56-.128-1.064-.384-1.512a2.681 2.681 0 00-1.056-1.056 2.993 2.993 0 00-1.512-.384c-.56 0-1.064.128-1.512.384-.448.248-.8.6-1.056 1.056a2.993 2.993 0 00-.384 1.512c0 .56.128 1.068.384 1.524.256.448.608.8 1.056 1.056.448.248.952.372 1.512.372zm12.985-7.152V60h-1.548v-3.168c-.792.296-1.544.444-2.256.444-1.072 0-1.9-.256-2.484-.768-.576-.52-.864-1.264-.864-2.232V51.6h1.548v2.508c0 .592.172 1.044.516 1.356.344.312.836.468 1.476.468a4.91 4.91 0 002.064-.444V51.6h1.548zm5.81 4.86h-1.56V60h-1.536v-8.4h1.536v3.516h1.608l2.412-3.516h1.656l-2.868 4.068L176.926 60h-1.764l-2.46-3.54zm11.07 1.596h-4.2L178.744 60h-1.608l3.78-8.4h1.536l3.792 8.4h-1.632l-.84-1.944zm-.516-1.224l-1.584-3.672-1.572 3.672h3.156zm8.325-5.232h6.54v1.284h-5.004v2.064h2.484c1.008 0 1.772.212 2.292.636.528.416.792 1.02.792 1.812 0 .832-.288 1.476-.864 1.932-.576.448-1.396.672-2.46.672h-3.78v-8.4zm3.696 7.2c.6 0 1.056-.116 1.368-.348.312-.232.468-.568.468-1.008 0-.864-.612-1.296-1.836-1.296h-2.16V58.8h2.16zm11.776-.108V60h-6.3v-8.4h6.132v1.308h-4.572v2.184h4.056v1.284h-4.056v2.316h4.74zm6.515-3.072c.504.16.896.42 1.176.78.288.352.432.768.432 1.248 0 .504-.164.944-.492 1.32-.328.368-.768.652-1.32.852-.544.2-1.14.3-1.788.3-.56 0-1.124-.076-1.692-.228a5.737 5.737 0 01-1.56-.708l.504-1.14c.368.248.776.44 1.224.576.448.128.892.192 1.332.192.632 0 1.156-.124 1.572-.372.424-.248.636-.588.636-1.02a.933.933 0 00-.456-.84c-.304-.192-.724-.288-1.26-.288h-1.956v-1.224h1.836c.464 0 .828-.096 1.092-.288a.915.915 0 00.396-.78c0-.392-.18-.696-.54-.912-.352-.216-.804-.324-1.356-.324a4.31 4.31 0 00-1.164.168c-.4.104-.776.26-1.128.468l-.492-1.26a5.539 5.539 0 011.368-.516c.488-.12.972-.18 1.452-.18a4.92 4.92 0 011.716.288c.528.192.948.468 1.26.828.312.352.468.768.468 1.248 0 .416-.112.78-.336 1.092a2.148 2.148 0 01-.924.72zm7.426-4.02h6.54v1.284h-5.004v2.064h2.484c1.008 0 1.772.212 2.292.636.528.416.792 1.02.792 1.812 0 .832-.288 1.476-.864 1.932-.576.448-1.396.672-2.46.672h-3.78v-8.4zm3.696 7.2c.6 0 1.056-.116 1.368-.348.312-.232.468-.568.468-1.008 0-.864-.612-1.296-1.836-1.296h-2.16V58.8h2.16zm10.985-.744h-4.2L230.647 60h-1.608l3.78-8.4h1.536l3.792 8.4h-1.632l-.84-1.944zm-.516-1.224l-1.584-3.672-1.572 3.672h3.156zm12.1-5.232V60h-1.56v-3.6h-4.344V60h-1.56v-8.4h1.56v3.468h4.344V51.6h1.56zm5.813 4.86h-1.56V60h-1.536v-8.4h1.536v3.516h1.608l2.412-3.516h1.656l-2.868 4.068L257.296 60h-1.764l-2.46-3.54zm11.07 1.596h-4.2L259.114 60h-1.608l3.78-8.4h1.536l3.792 8.4h-1.632l-.84-1.944zm-.516-1.224l-1.584-3.672-1.572 3.672h3.156z" fill="#E5D675"/><path fill-rule="evenodd" clip-rule="evenodd" d="M113.079 14.437h4.838l6.433 16.542c.349.871.659 1.413.93 1.614.271.207.773.306 1.496.306v2.958h-10.129v-2.958l.615-.015c.562 0 .955-.074 1.182-.227.226-.147.334-.33.334-.546 0-.182-.093-.56-.295-1.137l-.655-1.944h-6.492l-.802 2.166c-.162.462-.246.758-.246.905 0 .163.059.31.177.448.114.133.31.232.576.29.172.04.66.065 1.452.065v2.958h-8.303v-2.958c.536 0 .92-.05 1.171-.138a1.46 1.46 0 00.601-.414c.157-.182.335-.531.531-1.028l6.586-16.887zm-.615 11.546h4.247l-2.077-5.861-2.17 5.861zm22.399-12.678v17.98c0 .6.025.964.079 1.072.069.207.226.355.472.448.153.064.566.094 1.241.094h.536v2.958h-9.499v-2.958h.581c.615 0 1.004-.035 1.181-.114a.76.76 0 00.384-.369c.079-.172.123-.546.123-1.132V17.582h-2.264v-2.958c1.836-.128 3.726-.566 5.685-1.32h1.481zm15.15 4.09v-2.958h12.171c1.861 0 3.323.216 4.396.65 1.063.433 1.88 1.063 2.451 1.875.571.812.861 1.703.861 2.677 0 .709-.153 1.378-.458 2.013a5.03 5.03 0 01-1.309 1.678c-.571.488-1.319.891-2.259 1.206 1.004.256 1.772.542 2.308.842a4.78 4.78 0 011.831 1.806c.453.773.675 1.63.675 2.584 0 1.137-.34 2.186-1.029 3.14-.689.96-1.659 1.689-2.909 2.186-1.255.502-3.081.753-5.498.753h-11.226v-2.958h.851c.566 0 .95-.05 1.147-.148a.808.808 0 00.423-.413c.084-.178.128-.581.128-1.206v-11.96c0-.635-.044-1.039-.128-1.216a.885.885 0 00-.423-.413c-.197-.099-.581-.153-1.147-.153h-.856v.015zm7.83 5.724h2.353c1.226 0 2.141-.104 2.727-.31.59-.207 1.033-.517 1.334-.935.3-.419.447-.901.447-1.447 0-.566-.142-1.049-.423-1.452-.276-.399-.689-.69-1.221-.857-.531-.172-1.481-.256-2.854-.256h-2.353v5.257h-.01zm0 3.115v4.657c.01.654.035 1.043.079 1.151a.494.494 0 00.251.305c.113.06.433.084.96.084h1.56c.906 0 1.664-.084 2.259-.256.596-.167 1.108-.517 1.526-1.053.418-.537.63-1.176.63-1.925 0-.64-.148-1.18-.448-1.619-.295-.438-.738-.777-1.334-.999-.59-.226-1.501-.34-2.717-.34h-2.766v-.005zm24.132.345v-1.127c0-.67-.059-1.132-.167-1.383-.113-.256-.32-.468-.62-.635-.3-.167-.67-.251-1.113-.251-.339 0-.649.059-.93.167a1.795 1.795 0 00-.659.423c-.168.173-.355.508-.571 1.005-.276.63-.611 1.078-.99 1.358-.383.27-.836.409-1.358.409-.655 0-1.196-.207-1.614-.616a2.029 2.029 0 01-.63-1.516c0-.679.216-1.29.644-1.82.576-.71 1.433-1.285 2.57-1.738 1.137-.448 2.416-.67 3.839-.67 1.427 0 2.638.232 3.637.69.994.462 1.693 1.013 2.087 1.643.394.64.59 1.615.59 2.92v5.477c0 .675.035 1.108.109 1.295.069.187.226.354.462.497a1.5 1.5 0 00.788.216c.29 0 .674-.083 1.156-.246v3.008c-.871.275-1.707.413-2.51.413-.945 0-1.747-.153-2.416-.463a4.34 4.34 0 01-1.679-1.388c-1.028.665-1.954 1.142-2.795 1.428a7.431 7.431 0 01-2.422.423c-1.467 0-2.653-.413-3.558-1.236-.901-.821-1.354-1.84-1.354-3.046 0-.69.158-1.314.473-1.885.315-.571.782-1.073 1.397-1.506.626-.428 1.585-.808 2.89-1.142 1.304-.32 2.884-.561 4.744-.704zm0 2.55c-1.348.191-2.303.393-2.854.59-.557.197-.955.448-1.192.748-.236.305-.354.616-.354.93 0 .409.153.749.463 1.03.31.275.728.413 1.255.413.339 0 .733-.089 1.186-.261a9.49 9.49 0 001.506-.768v-2.683h-.01zm15.696-8.934v2.235c.822-.866 1.536-1.452 2.141-1.762.596-.315 1.181-.473 1.738-.473.502 0 .954.113 1.348.345.399.231.714.56.945.99.231.427.345.89.345 1.382 0 .645-.217 1.226-.64 1.752-.423.517-1.024.783-1.792.783-.206 0-.389-.015-.551-.05-.157-.029-.492-.132-1.004-.304a2.416 2.416 0 00-.66-.123c-.265 0-.708.167-1.324.502v5.985c0 .506.035.836.114.989a.676.676 0 00.369.34c.172.068.546.103 1.117.103h.664v2.958h-9.435v-2.958h.788c.566 0 .915-.03 1.053-.094a.59.59 0 00.315-.32c.074-.152.108-.492.108-1.023v-7.024h-2.264v-2.953c1.669-.103 3.396-.537 5.198-1.295h1.427v.015zm17.015 6.384v-1.127c0-.67-.059-1.132-.167-1.383-.114-.256-.32-.468-.62-.635-.301-.167-.67-.251-1.113-.251-.339 0-.649.059-.93.167a1.8 1.8 0 00-.66.423c-.167.173-.354.508-.571 1.005-.275.63-.61 1.078-.989 1.358-.384.27-.837.409-1.358.409-.655 0-1.196-.207-1.615-.616a2.033 2.033 0 01-.63-1.516c0-.679.217-1.29.645-1.82.576-.71 1.432-1.285 2.569-1.738 1.137-.448 2.417-.67 3.839-.67 1.428 0 2.639.232 3.638.69.994.462 1.693 1.013 2.087 1.643.393.64.59 1.615.59 2.92v5.477c0 .675.035 1.108.108 1.295.069.187.227.354.463.497.236.142.497.216.788.216.29 0 .674-.083 1.156-.246v3.008c-.871.275-1.708.413-2.51.413-.945 0-1.747-.153-2.417-.463a4.345 4.345 0 01-1.678-1.388c-1.029.665-1.954 1.142-2.796 1.428a7.421 7.421 0 01-2.421.423c-1.467 0-2.653-.413-3.559-1.236-.9-.821-1.353-1.84-1.353-3.046 0-.69.157-1.314.472-1.885.315-.571.783-1.073 1.398-1.506.625-.428 1.585-.808 2.889-1.142 1.31-.32 2.885-.561 4.745-.704zm0 2.55c-1.349.191-2.303.393-2.855.59-.556.197-.954.448-1.191.748-.236.305-.354.616-.354.93 0 .409.152.749.463 1.03.31.275.728.413 1.255.413.339 0 .733-.089 1.186-.261a9.49 9.49 0 001.506-.768v-2.683h-.01zm16.203-15.824V27.13l2.958-2.476c.315-.265.502-.438.561-.516a.39.39 0 00.084-.222c0-.128-.069-.226-.212-.305-.138-.079-.428-.113-.871-.113h-.571V20.54h9.371v2.958c-.674 0-1.142.05-1.388.138-.325.137-.866.472-1.619 1.018l-2.963 2.206 4.218 4.921c.428.507.783.817 1.053.936.271.113.807.177 1.61.187v2.958h-9.5v-2.958h.512c.374 0 .625-.035.744-.104.128-.074.182-.162.182-.27 0-.148-.163-.429-.488-.857l-1.771-2.259-1.92 1.432v.822c0 .389.03.65.089.788a.724.724 0 00.315.33c.147.078.384.122.699.122h.536v2.959h-8.805v-2.959h.713c.581 0 .955-.034 1.118-.113a.684.684 0 00.354-.393c.054-.133.079-.576.079-1.34v-13.47h-2.264v-2.958c1.742-.084 3.632-.522 5.685-1.32h1.491v-.01zm22.808 13.274v-1.127c0-.67-.059-1.132-.168-1.383-.113-.256-.319-.468-.62-.635-.3-.167-.669-.251-1.112-.251-.34 0-.65.059-.93.167a1.8 1.8 0 00-.66.423c-.167.173-.354.508-.571 1.005-.275.63-.61 1.078-.989 1.358-.384.27-.837.409-1.358.409-.655 0-1.196-.207-1.615-.616a2.033 2.033 0 01-.63-1.516c0-.679.217-1.29.645-1.82.576-.71 1.432-1.285 2.569-1.738 1.137-.448 2.417-.67 3.839-.67 1.428 0 2.638.232 3.637.69.995.462 1.694 1.013 2.087 1.643.394.64.591 1.615.591 2.92v5.477c0 .675.034 1.108.108 1.295.069.187.227.354.463.497.236.142.497.216.787.216.291 0 .675-.083 1.157-.246v3.008c-.871.275-1.708.413-2.51.413-.945 0-1.747-.153-2.417-.463a4.345 4.345 0 01-1.678-1.388c-1.029.665-1.954 1.142-2.796 1.428a7.43 7.43 0 01-2.421.423c-1.467 0-2.653-.413-3.559-1.236-.901-.821-1.353-1.84-1.353-3.046 0-.69.157-1.314.472-1.885.315-.571.783-1.073 1.398-1.506.625-.428 1.585-.808 2.889-1.142 1.304-.32 2.884-.561 4.745-.704zm0 2.55c-1.349.191-2.304.393-2.855.59-.556.197-.955.448-1.191.748-.236.305-.354.616-.354.93 0 .409.152.749.462 1.03.31.275.729.413 1.255.413.34 0 .734-.089 1.187-.261a9.576 9.576 0 001.506-.768v-2.683h-.01zM139.007 26.2h8.338v3.682h-8.338V26.2z" fill="#fff"/></svg>